name C:\Users\Nicos\Desktop\Gil_twoSteps\Study2\ExperimentalData\IK_Splined\twoSteps_IK_BSplines_40_meshInts_study2_p02_s_01_lowIK_modROI.mot
datacolumns 38
datarows 5
range 0.65500000 0.66590000
endheader
                time	         pelvis_tilt	         pelvis_list	     pelvis_rotation	           pelvis_tx	           pelvis_ty	           pelvis_tz	       hip_flexion_r	     hip_adduction_r	      hip_rotation_r	        knee_angle_r	       ankle_angle_r	    subtalar_angle_r	         mtp_angle_r	       hip_flexion_l	     hip_adduction_l	      hip_rotation_l	        knee_angle_l	       ankle_angle_l	    subtalar_angle_l	         mtp_angle_l	    lumbar_extension	      lumbar_bending	     lumbar_rotation	          arm_flex_r	           arm_add_r	           arm_rot_r	        elbow_flex_r	           pro_sup_r	        wrist_flex_r	         wrist_dev_r	          arm_flex_l	           arm_add_l	           arm_rot_l	        elbow_flex_l	           pro_sup_l	        wrist_flex_l	         wrist_dev_l	
          0.65500000	        -17.28424504	          3.83339918	          9.71104075	          0.30779476	          0.89385050	          0.33989630	         29.99704975	         -9.98253698	        -16.47581644	       -111.01537125	        -15.46923741	        -32.19606226	         -9.51428412	         30.90000358	          6.09362983	         -0.12177830	        -50.65108139	         20.44063902	         -8.69089071	          6.36225533	        -28.36558660	         -8.66962049	         -2.36415905	        -30.64515365	         -9.24689607	        -18.65018456	         51.94762828	         74.79428782	        -27.16526863	         29.61407313	         -2.89227143	        -11.64694928	         -7.93807440	         69.70415756	         68.73514976	          4.71062402	         20.15719878	
          0.65669006	        -17.34560032	          3.65371607	         10.17617316	          0.31655544	          0.89339064	          0.33927104	         31.10242242	        -10.07735457	        -16.70298305	       -111.93426175	        -14.67200486	        -32.08024205	         -9.32373264	         30.24296681	          6.09179000	          0.22723969	        -50.45302097	         20.86006785	         -8.55355853	          6.48523746	        -28.26195129	         -8.17665990	         -2.47265509	        -31.48648412	         -9.10065667	        -18.90229868	         50.62767077	         75.35688406	        -27.09722376	         30.03406984	         -1.69518823	        -11.26635328	         -7.66861668	         70.49996642	         68.62227072	          4.73577565	         20.03399852	
          0.66202994	        -17.56954271	          2.99834672	         11.75096171	          0.34395515	          0.89187394	          0.33732216	         34.78751021	        -10.44845042	        -17.30579876	       -114.40515571	        -12.22318277	        -31.54513989	         -8.57963283	         28.27467471	          5.88238202	          1.51856156	        -49.70519114	         21.77610270	         -8.25214152	          7.10880414	        -27.80206993	         -6.48539651	         -3.01250073	        -34.43277278	         -8.57538983	        -19.83589046	         47.90206798	         76.96045621	        -26.73653699	         31.20005238	          2.04803893	        -10.10315123	         -6.66035690	         73.56602141	         67.86084234	          4.72971026	         19.71619214	
          0.66590000	        -17.73701847	          2.50829611	         12.91036945	          0.36376472	          0.89076376	          0.33591430	         37.49137978	        -10.72970032	        -17.72291669	       -116.12154516	        -10.46047018	        -31.12823177	         -8.01591990	         26.86668565	          5.69559578	          2.48687458	        -49.14221413	         22.36961262	         -8.05648087	          7.60115040	        -27.44599391	         -5.23666369	         -3.43764294	        -36.61762195	         -8.18383309	        -20.53607312	         46.17523227	         78.09270803	        -26.45007154	         32.01739367	          4.75420398	         -9.26689068	         -5.90264142	         75.88300986	         67.23937833	          4.71060228	         19.49815425	
          0.66590000	        -17.73701847	          2.50829611	         12.91036945	          0.36376472	          0.89076376	          0.33591430	         37.49137978	        -10.72970032	        -17.72291669	       -116.12154516	        -10.46047018	        -31.12823177	         -8.01591990	         26.86668565	          5.69559578	          2.48687458	        -49.14221413	         22.36961262	         -8.05648087	          7.60115040	        -27.44599391	         -5.23666369	         -3.43764294	        -36.61762195	         -8.18383309	        -20.53607312	         46.17523227	         78.09270803	        -26.45007154	         32.01739367	          4.75420398	         -9.26689068	         -5.90264142	         75.88300986	         67.23937833	          4.71060228	         19.49815425	
